<svg xmlns="http://www.w3.org/2000/svg" xmlns:xlink="http://www.w3.org/1999/xlink" viewBox="0 0 506.14 69.02"><defs><style>.cls-1{fill:#e9e9e9;}.cls-2{fill:url(#Degradado_sin_nombre_7);}.cls-3{fill:url(#Degradado_sin_nombre_2);}.cls-4{fill:url(#Degradado_sin_nombre_3);}.cls-5{fill:url(#Degradado_sin_nombre_4);}.cls-6{fill:url(#Degradado_sin_nombre_5);}.cls-7{fill:url(#Degradado_sin_nombre_6);}.cls-8{fill:url(#Degradado_sin_nombre_14);}.cls-9{fill:url(#Degradado_sin_nombre_8);}.cls-10{fill:url(#Degradado_sin_nombre_9);}.cls-11{fill:url(#Degradado_sin_nombre_10);}.cls-12{fill:url(#Degradado_sin_nombre_11);}.cls-13{fill:url(#Degradado_sin_nombre_14-2);}.cls-14{fill:url(#Degradado_sin_nombre_13);}.cls-15{fill:url(#Degradado_sin_nombre_14-3);}.cls-16{fill:url(#Degradado_sin_nombre_15);}.cls-17{fill:#fff;}</style><linearGradient id="Degradado_sin_nombre_7" x1="670.78" y1="-447.69" x2="695.97" y2="-447.69" gradientTransform="translate(-645.33 619.41) scale(1.33)" gradientUnits="userSpaceOnUse"><stop offset="0" stop-color="#b1b1b1"/><stop offset="0.92" stop-color="#c9c9c9" stop-opacity="0.76"/></linearGradient><linearGradient id="Degradado_sin_nombre_2" x1="682.62" y1="-435.62" x2="715.89" y2="-435.62" gradientTransform="translate(-645.33 619.41) scale(1.33)" gradientUnits="userSpaceOnUse"><stop offset="0" stop-color="#d9d9d9"/><stop offset="1" stop-color="#878787" stop-opacity="0"/></linearGradient><linearGradient id="Degradado_sin_nombre_3" x1="675.03" y1="-443.13" x2="709.34" y2="-443.13" gradientTransform="translate(-645.33 619.41) scale(1.33)" gradientUnits="userSpaceOnUse"><stop offset="0" stop-color="#bcbcbc"/><stop offset="0.85" stop-color="#565656" stop-opacity="0"/></linearGradient><linearGradient id="Degradado_sin_nombre_4" x1="701.17" y1="-426.68" x2="722.55" y2="-426.68" gradientTransform="translate(-645.33 619.41) scale(1.33)" gradientUnits="userSpaceOnUse"><stop offset="0" stop-color="#9e9e9e"/><stop offset="1" stop-color="#a4a4a4" stop-opacity="0"/></linearGradient><linearGradient id="Degradado_sin_nombre_5" x1="696.66" y1="-433.08" x2="720.8" y2="-433.08" gradientTransform="translate(-645.33 619.41) scale(1.33)" gradientUnits="userSpaceOnUse"><stop offset="0" stop-color="#d6d6d6"/><stop offset="1" stop-color="#929292" stop-opacity="0"/></linearGradient><linearGradient id="Degradado_sin_nombre_6" x1="689.08" y1="-454.65" x2="699.8" y2="-454.65" gradientTransform="translate(-645.33 619.41) scale(1.33)" gradientUnits="userSpaceOnUse"><stop offset="0" stop-color="#f9f9f9"/><stop offset="1" stop-color="#bebebe"/></linearGradient><linearGradient id="Degradado_sin_nombre_14" x1="671.56" y1="-439.11" x2="674.49" y2="-439.11" gradientTransform="translate(-645.33 619.41) scale(1.33)" gradientUnits="userSpaceOnUse"><stop offset="0" stop-color="#fff"/><stop offset="1" stop-color="#fff" stop-opacity="0"/></linearGradient><linearGradient id="Degradado_sin_nombre_8" x1="677.8" y1="-423.57" x2="682.48" y2="-423.57" gradientTransform="translate(-645.33 619.41) scale(1.33)" gradientUnits="userSpaceOnUse"><stop offset="0" stop-color="#fff"/><stop offset="1" stop-color="#747474" stop-opacity="0"/></linearGradient><linearGradient id="Degradado_sin_nombre_9" x1="705.12" y1="-441.63" x2="711.1" y2="-441.63" gradientTransform="translate(-645.33 619.41) scale(1.33)" gradientUnits="userSpaceOnUse"><stop offset="0" stop-color="#fff"/><stop offset="1" stop-color="#949494" stop-opacity="0"/></linearGradient><linearGradient id="Degradado_sin_nombre_10" x1="696.1" y1="-419.4" x2="703.98" y2="-419.4" gradientTransform="translate(-645.33 619.41) scale(1.33)" gradientUnits="userSpaceOnUse"><stop offset="0" stop-color="#c2c2c2"/><stop offset="1" stop-color="#bdbdbd" stop-opacity="0"/></linearGradient><linearGradient id="Degradado_sin_nombre_11" x1="690.47" y1="-428.44" x2="692" y2="-428.44" gradientTransform="translate(-645.33 619.41) scale(1.33)" gradientUnits="userSpaceOnUse"><stop offset="0" stop-color="#fff"/><stop offset="1" stop-color="#868686" stop-opacity="0"/></linearGradient><linearGradient id="Degradado_sin_nombre_14-2" x1="680.02" y1="-456.54" x2="683.94" y2="-456.54" xlink:href="#Degradado_sin_nombre_14"/><linearGradient id="Degradado_sin_nombre_13" x1="683.17" y1="-438.34" x2="690.51" y2="-438.34" gradientTransform="translate(-645.33 619.41) scale(1.33)" gradientUnits="userSpaceOnUse"><stop offset="0" stop-color="#d1d1d1"/><stop offset="1" stop-color="#d3d3d3"/></linearGradient><linearGradient id="Degradado_sin_nombre_14-3" x1="716.37" y1="-431.44" x2="720.52" y2="-431.44" xlink:href="#Degradado_sin_nombre_14"/><linearGradient id="Degradado_sin_nombre_15" x1="708.04" y1="-419.17" x2="712.04" y2="-419.17" gradientTransform="translate(-645.33 619.41) scale(1.33)" gradientUnits="userSpaceOnUse"><stop offset="0" stop-color="#fff"/><stop offset="1" stop-color="#343434" stop-opacity="0"/></linearGradient></defs><title>Recurso 5</title><g id="Capa_2" data-name="Capa 2"><g id="Capa_1-2" data-name="Capa 1"><g id="g17"><g id="g255"><g id="g257"><g id="g263"><g id="g265"><path id="path279" class="cls-1" d="M282.64,0a35.68,35.68,0,0,0-4.89.48h0A34.51,34.51,0,0,0,249.1,32.64h0c0,.62,0,1.24,0,1.87h0A34.73,34.73,0,0,0,250.66,45h0a34.67,34.67,0,0,0,4.05,8.48h0a33.68,33.68,0,0,0,2,2.74h0a34.71,34.71,0,0,0,8.12,7.31h0a34.61,34.61,0,0,0,7.87,3.78h0A34.46,34.46,0,0,0,283.56,69h0q.75,0,1.5,0h0a35.15,35.15,0,0,0,4.51-.49h0a33.34,33.34,0,0,0,3.74-.88h0a34.56,34.56,0,0,0,23.74-24.77h0a34.2,34.2,0,0,0,1-8.34h0q0-1-.06-2h0A34.41,34.41,0,0,0,315.74,22h0a34,34,0,0,0-3.77-7.1h0a33.74,33.74,0,0,0-2.78-3.51h0c-.47-.53-1-1-1.46-1.53h0a34.09,34.09,0,0,0-7.27-5.46h0A34,34,0,0,0,291.61.94h0A35,35,0,0,0,283.56,0h-.92"/></g></g></g></g><g id="g281"><g id="g283"><g id="g289"><g id="g291"><path id="path305" class="cls-2" d="M277.75.49c-6.33,3.81-13.87,8.85-16.45,12.59h0C258.58,17,254.84,25,249.1,32.64h0c0,.62,0,1.24,0,1.87h0A34.73,34.73,0,0,0,250.66,45h0c2.65-5.72,4.78-11.4,8-16.12h0c6.25-9,9.75-20.7,23.94-28.84h0a35.68,35.68,0,0,0-4.89.48"/></g></g></g></g><g id="g307"><g id="g309"><g id="g315"><g id="g317"><path id="path331" class="cls-3" d="M305.25,11.05S282,28.61,277.72,36.79h0c-2.76,5.32-6.08,16.14-12.89,26.71h0a34.61,34.61,0,0,0,7.87,3.78h0c1.44-5,2.8-9.81,5.12-14.25h0c6.54-12.53,7.92-27.4,31.37-41.62h0c-.47-.53-1-1-1.46-1.53h0l-2.48,1.17"/></g></g></g></g><g id="g333"><g id="g335"><g id="g341"><g id="g343"><path id="path357" class="cls-4" d="M290.15,6.77c-.93,4.55-9.47,11.51-13,13.45h0c-3.53,2-14.47,16.42-15,19.11h0c-.32,1.56-3.78,8.23-7.42,14.12h0a33.68,33.68,0,0,0,2,2.74h0A25.88,25.88,0,0,0,259,52.51h0c4-8.17,8-20.5,14.47-22.73h0c6.49-2.23,20.87-10.39,25.6-21.62h0c.59-1.39,1.05-2.63,1.41-3.74h0A34,34,0,0,0,291.61.94h0c-.48,1.67-1,3.76-1.46,5.83"/></g></g></g></g><g id="g359"><g id="g361"><g id="g367"><g id="g369"><path id="path383" class="cls-5" d="M309.81,39c-3.52,1.95-14.47,16.42-15,19.11h0c-.26,1.24-2.49,5.7-5.22,10.43h0a33.34,33.34,0,0,0,3.74-.88h0c3.47-7.78,7.21-17.19,12.79-19.1h0a51.47,51.47,0,0,0,10.95-5.67h0a34.2,34.2,0,0,0,1-8.34h0q0-1-.06-2h0a43.23,43.23,0,0,1-8.2,6.46"/></g></g></g></g><g id="g385"><g id="g387"><g id="g393"><g id="g395"><path id="path409" class="cls-6" d="M305.39,22.26C286.25,34.51,285.34,49.2,285.32,52h0c0,2.75,1.7,13.54-1.76,17.07h0q.75,0,1.5,0h0c2.41-5.19,4.08-11.83,2.95-17.41h0c-1.79-8.91,9.68-15.77,15.61-19.22h0A54.61,54.61,0,0,0,315.74,22h0a34,34,0,0,0-3.77-7.1h0c-2.15,3.24-4.81,6.21-6.58,7.34"/></g></g></g></g><g id="g411"><g id="g413"><g id="g419"><g id="g421"><path id="path435" class="cls-7" d="M279.49,9.56c-3.9,1.18-6.57,3.76-6,5.77h0c.61,2,4.26,2.69,8.16,1.52h0c3.9-1.18,6.57-3.76,6-5.77h0c-.4-1.35-2.16-2.1-4.45-2.1h0a13.08,13.08,0,0,0-3.71.58"/></g></g></g></g><g id="g437"><g id="g439"><g id="g445"><g id="g447"><path id="path461" class="cls-8" d="M250.1,33.87c-.08,2.67.74,4.85,1.81,4.88h0c1.08,0,2-2.11,2.08-4.77h0c.08-2.66-.73-4.85-1.81-4.88h0c-1.07,0-2,2.13-2.06,4.77"/></g></g></g></g><g id="g463"><g id="g465"><g id="g471"><g id="g473"><path id="path487" class="cls-9" d="M259.51,50.73c-1.32.67-1.48,3-.36,5.14h0c1.11,2.16,3.09,3.37,4.4,2.69h0c1.32-.68,1.48-3,.36-5.15h0c-.9-1.75-2.37-2.87-3.59-2.87h0a1.73,1.73,0,0,0-.81.19"/></g></g></g></g><g id="g489"><g id="g491"><g id="g497"><g id="g499"><path id="path513" class="cls-10" d="M294.83,30.57c0,2.56,1.79,4.64,4,4.64h0c2.2,0,4-2.08,4-4.64h0c0-2.56-1.79-4.64-4-4.64h0c-2.2,0-4,2.08-4,4.64"/></g></g></g></g><g id="g515"><g id="g517"><g id="g523"><g id="g525"><path id="path539" class="cls-11" d="M287.1,57.2c-2.86.92-4.74,3-4.21,4.66h0c.53,1.66,3.28,2.27,6.13,1.35h0c2.86-.91,4.74-3,4.21-4.66h0c-.37-1.13-1.76-1.77-3.52-1.77h0a8.55,8.55,0,0,0-2.61.42"/></g></g></g></g><g id="g541"><g id="g543"><g id="g549"><g id="g551"><path id="path565" class="cls-12" d="M275.3,48.15a1,1,0,0,0,1,1h0a1,1,0,0,0,1-1h0a1,1,0,0,0-1-1h0a1,1,0,0,0-1,1"/></g></g></g></g><g id="g567"><g id="g569"><g id="g575"><g id="g577"><path id="path591" class="cls-13" d="M263,9.73c-1.34,1.34-2,2.85-1.48,3.38h0c.52.52,2-.13,3.38-1.47h0c1.35-1.34,2-2.85,1.49-3.38h0a.73.73,0,0,0-.52-.18h0A5,5,0,0,0,263,9.73"/></g></g></g></g><g id="g593"><g id="g595"><g id="g601"><g id="g603"><path id="path617" class="cls-14" d="M266.13,33c-1.25,2.84-.33,6,2.06,7.05h0c2.39,1.06,5.34-.38,6.6-3.22h0c1.25-2.83.33-6-2.06-7h0a4.13,4.13,0,0,0-1.65-.34h0A5.67,5.67,0,0,0,266.13,33"/></g></g></g></g><g id="g619"><g id="g621"><g id="g627"><g id="g629"><path id="path643" class="cls-15" d="M310.31,43.25c-.86,2.16-.54,4.33.72,4.83h0c1.27.5,3-.85,3.85-3h0c.86-2.17.54-4.33-.72-4.83h0a1.55,1.55,0,0,0-.56-.11h0c-1.17,0-2.55,1.26-3.29,3.12"/></g></g></g></g><g id="g645"><g id="g647"><g id="g653"><g id="g655"><path id="path669" class="cls-16" d="M300.29,59.09c-1.34,1-1.93,2.51-1.32,3.3h0c.61.79,2.19.59,3.53-.44h0c1.34-1,1.93-2.51,1.32-3.3h0a1.41,1.41,0,0,0-1.17-.49h0a4,4,0,0,0-2.36.93"/></g></g></g></g></g><path class="cls-17" d="M40.89,44.62H17.12v11H0V21.5a11.4,11.4,0,0,1,1.43-6.3A8.21,8.21,0,0,1,4.9,12.14a11.59,11.59,0,0,1,4.37-1c1.55-.06,2.89-.09,4-.09H44q3.57,0,6.19.24a10.06,10.06,0,0,1,4.3,1.24,6.15,6.15,0,0,1,2.53,3.15,17.09,17.09,0,0,1,.83,6v34h-17ZM17.12,33.21H40.89V25.12a12.5,12.5,0,0,0-.12-2,2.06,2.06,0,0,0-.41-1,1.46,1.46,0,0,0-.83-.41,8.61,8.61,0,0,0-1.37-.09H20a7.52,7.52,0,0,0-1.51.12,1.48,1.48,0,0,0-.87.47,2.12,2.12,0,0,0-.38,1,15.17,15.17,0,0,0-.09,1.87Z"/><path class="cls-17" d="M70.91,39a10.09,10.09,0,0,1-3.45-.59,8.81,8.81,0,0,1-3-1.78,8.72,8.72,0,0,1-2.08-2.92,9,9,0,0,1-.71-4V21.62a16.85,16.85,0,0,1,.83-6,6.09,6.09,0,0,1,2.52-3.15,10.1,10.1,0,0,1,4.31-1.24Q72,11,75.54,11h30.73q1.73,0,4,.09a11.5,11.5,0,0,1,4.36,1,8.17,8.17,0,0,1,3.48,3.06,11.4,11.4,0,0,1,1.43,6.3v4.81h-17q0-1.48,0-2.4a3.31,3.31,0,0,0-.3-1.43,1.32,1.32,0,0,0-.83-.68,5.71,5.71,0,0,0-1.64-.18H81.61a9.12,9.12,0,0,0-1.4.09,1.61,1.61,0,0,0-.89.41,2.06,2.06,0,0,0-.48,1,10,10,0,0,0-.15,2v2.44h31.69a7.91,7.91,0,0,1,3.44.8,10.07,10.07,0,0,1,3,2.2,10.35,10.35,0,0,1,2.08,3.3,10.16,10.16,0,0,1,.72,4.16v6.9a17.06,17.06,0,0,1-.83,5.94A6,6,0,0,1,116.2,54a10.38,10.38,0,0,1-4.37,1.25q-2.64.24-6.21.24H75c-1.15,0-2.5,0-4-.09a11.74,11.74,0,0,1-4.37-1,8.31,8.31,0,0,1-3.48-3.06A11.43,11.43,0,0,1,61.7,45V40.22h17c0,1,0,1.85.09,2.47a4,4,0,0,0,.36,1.43,1.3,1.3,0,0,0,.83.65,6.47,6.47,0,0,0,1.58.15h18.3a8,8,0,0,0,1.34-.09,1.14,1.14,0,0,0,.77-.45,2.41,2.41,0,0,0,.39-1,11.82,11.82,0,0,0,.12-1.93V39Z"/><path class="cls-17" d="M138.84,26.31H124.58V21.62a17.09,17.09,0,0,1,.83-6,6.15,6.15,0,0,1,2.53-3.15,10.06,10.06,0,0,1,4.31-1.24q2.61-.24,6.18-.24h24.78q1.72,0,4,.09a11.5,11.5,0,0,1,4.36,1,8.17,8.17,0,0,1,3.48,3.06,11.4,11.4,0,0,1,1.43,6.3v4.81H161.61q0-1.43,0-2.34a3.54,3.54,0,0,0-.3-1.46,1.3,1.3,0,0,0-.8-.71,5.36,5.36,0,0,0-1.6-.18v31a12.44,12.44,0,0,1-.09,1.73,1.26,1.26,0,0,1-.45.86,2.17,2.17,0,0,1-1.13.33c-.51,0-1.23.06-2.14.06h-9.39c-.91,0-1.63,0-2.14-.06a2.17,2.17,0,0,1-1.13-.33,1.22,1.22,0,0,1-.44-.86,12.44,12.44,0,0,1-.09-1.73v-31h-.12a11.86,11.86,0,0,0-1.67.09,1.12,1.12,0,0,0-.86.56,3.42,3.42,0,0,0-.33,1.43Q138.84,24.64,138.84,26.31Z"/><path class="cls-17" d="M181.52,21.5A11.4,11.4,0,0,1,183,15.2a8.21,8.21,0,0,1,3.47-3.06,11.59,11.59,0,0,1,4.37-1c1.55-.06,2.9-.09,4-.09h30.73q3.57,0,6.19.24a10.1,10.1,0,0,1,4.31,1.24,6.14,6.14,0,0,1,2.52,3.15,16.85,16.85,0,0,1,.83,6V35.35a8.6,8.6,0,0,1-1.54,5.47A9.36,9.36,0,0,1,234,43.91l5.29,11.71H222.77l-4.22-11H198.64v11H181.52Zm17.12,11.71h23.77V25.12a14.12,14.12,0,0,0-.11-2,2.05,2.05,0,0,0-.42-1,1.46,1.46,0,0,0-.83-.41,8.61,8.61,0,0,0-1.37-.09H201.49a7.52,7.52,0,0,0-1.51.12,1.48,1.48,0,0,0-.87.47,2.12,2.12,0,0,0-.38,1,15.17,15.17,0,0,0-.09,1.87Z"/><path class="cls-17" d="M365,45H341.26V56H324.14V21.91a11.43,11.43,0,0,1,1.42-6.3A8.43,8.43,0,0,1,329,12.55a11.79,11.79,0,0,1,4.37-1c1.55-.06,2.89-.09,4-.09h30.73q3.57,0,6.18.24a10.06,10.06,0,0,1,4.31,1.25,6.07,6.07,0,0,1,2.53,3.15A17,17,0,0,1,382,22V56H365ZM341.26,33.62H365V25.54a12.41,12.41,0,0,0-.12-2,2.11,2.11,0,0,0-.41-1,1.41,1.41,0,0,0-.84-.42A8.39,8.39,0,0,0,362.3,22H344.11a7.7,7.7,0,0,0-1.52.12,1.49,1.49,0,0,0-.86.48,2,2,0,0,0-.38,1,15.05,15.05,0,0,0-.09,1.87Z"/><path class="cls-17" d="M386.07,21.91a11.43,11.43,0,0,1,1.43-6.3A8.31,8.31,0,0,1,391,12.55a11.69,11.69,0,0,1,4.36-1q2.32-.09,4.05-.09h30.73q3.56,0,6.18.24a10.1,10.1,0,0,1,4.31,1.25,6,6,0,0,1,2.52,3.15A16.79,16.79,0,0,1,444,22V35.76a8.94,8.94,0,0,1-.71,4,8.72,8.72,0,0,1-2.08,2.92,8.81,8.81,0,0,1-3,1.78,10.09,10.09,0,0,1-3.45.59H403.19V56H386.07Zm17.12,11.71H427V25.54a12.41,12.41,0,0,0-.12-2,2,2,0,0,0-.42-1,1.41,1.41,0,0,0-.83-.42,8.53,8.53,0,0,0-1.37-.09H406a7.52,7.52,0,0,0-1.51.12,1.43,1.43,0,0,0-.86.48,2,2,0,0,0-.39,1,15.05,15.05,0,0,0-.09,1.87Z"/><path class="cls-17" d="M448.24,21.91a11.43,11.43,0,0,1,1.43-6.3,8.31,8.31,0,0,1,3.48-3.06,11.7,11.7,0,0,1,4.37-1c1.54-.06,2.89-.09,4-.09h30.73q3.56,0,6.18.24a10.1,10.1,0,0,1,4.31,1.25,6,6,0,0,1,2.52,3.15,16.76,16.76,0,0,1,.84,5.94V35.76a9.07,9.07,0,0,1-.72,4,8.72,8.72,0,0,1-2.08,2.92,8.81,8.81,0,0,1-3,1.78,10.09,10.09,0,0,1-3.45.59H465.36V56H448.24Zm17.12,11.71h23.78V25.54a12.41,12.41,0,0,0-.12-2,2,2,0,0,0-.42-1,1.38,1.38,0,0,0-.83-.42A8.53,8.53,0,0,0,486.4,22H468.21a7.52,7.52,0,0,0-1.51.12,1.43,1.43,0,0,0-.86.48,2,2,0,0,0-.39,1,15.05,15.05,0,0,0-.09,1.87Z"/></g></g></svg>