<svg width="170" height="170" viewBox="0 0 170 170" fill="none" xmlns="http://www.w3.org/2000/svg">
<path d="M82.7288 0.0297012C78.6364 0.137094 74.6149 0.534675 70.6848 1.20188C32.0281 7.75739 2.25296 40.4113 0.123389 80.4027C0.0413595 81.9245 0 83.4577 0 85C0 93.9821 1.39381 102.64 3.97809 110.767C6.34758 118.23 9.72016 125.245 13.9382 131.654C15.4691 133.98 17.1097 136.228 18.8577 138.388C24.5221 145.4 31.2807 151.492 38.8738 156.405C44.8533 160.278 51.3519 163.419 58.241 165.7C66.6542 168.489 75.65 170 85 170C86.2362 170 87.4678 169.973 88.6902 169.92C92.4626 169.76 96.1711 169.353 99.8019 168.714C102.935 168.165 106.006 167.443 109.01 166.561C137.791 158.102 160.232 134.823 167.498 105.551C169.132 98.9702 170 92.0856 170 85C170 83.3388 169.952 81.6891 169.858 80.0531C169.337 70.991 167.397 62.3107 164.258 54.2289C161.843 48.0136 158.719 42.1527 154.983 36.7465C152.888 33.7121 150.598 30.8216 148.135 28.0911C146.972 26.7978 145.77 25.5434 144.53 24.3278C139.199 19.0976 133.185 14.5665 126.63 10.8763C119.88 7.07624 112.559 4.17231 104.826 2.32607C98.4652 0.804295 91.8274 -4.17233e-06 85 -4.17233e-06C84.2414 -4.17233e-06 83.4828 0.00913673 82.7288 0.0297012Z" fill="#19053A"/>
<path d="M70.6848 1.20187C55.0992 10.5839 36.5157 22.998 30.1613 32.2177C23.4847 41.9036 14.2604 61.4881 0.123389 80.4027C0.0413595 81.9244 0 83.4576 0 85C0 93.9821 1.39381 102.64 3.97809 110.767C10.4833 96.6715 15.7296 82.6785 23.7634 71.0618C39.1571 48.8064 47.7757 20.0801 82.7288 0.0296867C78.6364 0.137079 74.6149 0.534661 70.6848 1.20187" fill="url(#paint0_linear_114_10892)"/>
<path d="M138.433 27.2068C138.433 27.2068 81.0996 70.4748 70.6254 90.6072C63.8071 103.718 55.6476 130.361 38.8738 156.405C44.8533 160.278 51.3519 163.419 58.241 165.7C61.8101 153.409 65.1461 141.55 70.8585 130.612C86.9765 99.7516 90.381 63.1171 148.135 28.0911C146.972 26.7978 145.77 25.5434 144.53 24.3278C140.83 26.0689 138.433 27.2068 138.433 27.2068Z" fill="url(#paint1_linear_114_10892)"/>
<path d="M101.223 16.68C98.9381 27.8763 77.9166 45.0134 69.2338 49.8118C60.551 54.6101 33.5886 90.2553 32.2177 96.8816C31.4248 100.713 22.9179 117.147 13.9381 131.654C15.469 133.98 17.1096 136.228 18.8576 138.388C21.1014 135.321 23.0137 132.264 24.4489 129.328C34.2741 109.22 44.0994 78.8306 60.094 73.3467C76.0886 67.8628 111.505 47.7553 123.159 20.1074C124.605 16.6755 125.747 13.6091 126.63 10.8763C119.88 7.07616 112.559 4.17224 104.826 2.32601C103.638 6.42291 102.265 11.5757 101.223 16.68Z" fill="url(#paint2_linear_114_10892)"/>
<path d="M149.664 95.9678C140.981 100.766 114.019 136.411 112.648 143.038C112.019 146.079 106.529 157.058 99.8019 168.714C102.935 168.165 106.006 167.443 109.01 166.561C117.568 147.381 126.762 124.221 140.524 119.503C147.187 117.218 157.218 112.397 167.498 105.551C169.132 98.9702 170 92.0857 170 85.0001C170 83.3389 169.952 81.6892 169.858 80.0531C162.821 87.0519 154.403 93.3492 149.664 95.9678Z" fill="url(#paint3_linear_114_10892)"/>
<path d="M138.765 54.8273C91.6264 85 89.3894 121.191 89.3414 127.957C89.2934 134.723 93.5183 161.31 85 170C86.2362 170 87.4677 169.973 88.6902 169.92C94.6379 157.131 98.7371 140.78 95.9677 127.043C91.5441 105.105 119.795 88.2058 134.408 79.6966C141.932 75.3164 153.745 66.1263 164.258 54.2289C161.843 48.0136 158.719 42.1527 154.983 36.7465C149.689 44.7258 143.122 52.0397 138.765 54.8273" fill="url(#paint4_linear_114_10892)"/>
<path d="M74.9857 23.5502C65.3798 26.444 58.8024 32.8058 60.2951 37.76C61.7874 42.714 70.7844 44.3841 80.3903 41.4902C89.9965 38.5961 96.5737 32.2341 95.0814 27.2801C94.0851 23.9733 89.7462 22.1298 84.1136 22.1301C81.3077 22.1301 78.1798 22.5877 74.9857 23.5502" fill="url(#paint5_linear_114_10892)"/>
<path d="M2.58249 83.4283C2.39993 89.9877 4.39949 95.3651 7.04865 95.4389C9.69759 95.5125 11.993 90.2546 12.1754 83.695C12.3577 77.1356 10.3584 71.7582 7.70923 71.6846C7.69072 71.6842 7.67266 71.684 7.65416 71.684C5.02875 71.6842 2.76369 76.9144 2.58249 83.4283Z" fill="url(#paint6_linear_114_10892)"/>
<path d="M25.76 124.938C22.5197 126.61 22.1221 132.284 24.8718 137.611C27.6215 142.937 32.4773 145.899 35.7173 144.226C38.9576 142.553 39.3554 136.879 36.6055 131.553C34.3763 127.235 30.7626 124.471 27.7479 124.471C27.0443 124.471 26.373 124.621 25.76 124.938Z" fill="url(#paint7_linear_114_10892)"/>
<path d="M112.762 75.2889C112.762 81.5985 117.161 86.7136 122.587 86.7136C128.014 86.7136 132.413 81.5985 132.413 75.2889C132.413 68.9792 128.014 63.8642 122.587 63.8642C117.161 63.8642 112.762 68.9792 112.762 75.2889Z" fill="url(#paint8_linear_114_10892)"/>
<path d="M93.7123 140.894C86.6815 143.147 82.0433 148.285 83.3523 152.371C84.6611 156.457 91.4214 157.944 98.4519 155.691C105.482 153.44 110.121 148.301 108.812 144.215C107.917 141.422 104.475 139.844 100.141 139.843C98.1341 139.843 95.9371 140.182 93.7123 140.894Z" fill="url(#paint9_linear_114_10892)"/>
<path d="M64.6639 118.589C64.6639 119.977 65.7893 121.102 67.1774 121.102C68.5655 121.102 69.6908 119.977 69.6908 118.589C69.6908 117.201 68.5655 116.075 67.1774 116.075C65.7893 116.075 64.6639 117.201 64.6639 118.589Z" fill="url(#paint10_linear_114_10892)"/>
<path d="M34.4446 23.9691C31.134 27.2615 29.4959 30.9825 30.7862 32.2799C32.0768 33.5773 35.8065 31.96 39.1171 28.6677C42.428 25.375 44.0659 21.6545 42.7756 20.3568C42.4733 20.0529 42.0373 19.909 41.504 19.909C39.761 19.9092 36.98 21.4479 34.4446 23.9691Z" fill="url(#paint11_linear_114_10892)"/>
<path d="M42.0776 81.389C38.9899 88.3716 41.2584 96.1422 47.1444 98.7448C53.0305 101.348 60.3053 97.7977 63.3929 90.8149C66.4808 83.8325 64.2123 76.0621 58.3263 73.4591C57.0168 72.8801 55.6389 72.6057 54.2534 72.6057C49.4109 72.6059 44.4784 75.96 42.0776 81.389" fill="url(#paint12_linear_114_10892)"/>
<path d="M150.894 106.522C148.768 111.855 149.563 117.183 152.67 118.421C155.776 119.659 160.017 116.339 162.144 111.005C164.269 105.671 163.474 100.344 160.368 99.1056C159.929 98.9306 159.467 98.8465 158.992 98.8465C156.105 98.8467 152.719 101.942 150.894 106.522" fill="url(#paint13_linear_114_10892)"/>
<path d="M126.204 145.532C122.909 148.078 121.457 151.721 122.961 153.668C124.466 155.616 128.357 155.13 131.652 152.584C134.948 150.038 136.399 146.395 134.895 144.448C134.273 143.643 133.244 143.254 132.017 143.254C130.276 143.254 128.138 144.038 126.204 145.532Z" fill="url(#paint14_linear_114_10892)"/>
<defs>
<linearGradient id="paint0_linear_114_10892" x1="-41" y1="36.5" x2="-66.5001" y2="-521" gradientUnits="userSpaceOnUse">
<stop stop-color="#381763"/>
<stop offset="0.917905" stop-color="#C9C9C9" stop-opacity="0.764824"/>
</linearGradient>
<linearGradient id="paint1_linear_114_10892" x1="38.8738" y1="95.0138" x2="142" y2="13" gradientUnits="userSpaceOnUse">
<stop stop-color="#381763"/>
<stop offset="1" stop-color="#878787" stop-opacity="0"/>
</linearGradient>
<linearGradient id="paint2_linear_114_10892" x1="53.5" y1="44.5" x2="192" y2="-41.5" gradientUnits="userSpaceOnUse">
<stop stop-color="#381763"/>
<stop offset="0.853591" stop-color="#343434" stop-opacity="0"/>
</linearGradient>
<linearGradient id="paint3_linear_114_10892" x1="87.5" y1="171.5" x2="206.5" y2="59.5" gradientUnits="userSpaceOnUse">
<stop stop-color="#381763"/>
<stop offset="1" stop-color="#343434" stop-opacity="0"/>
</linearGradient>
<linearGradient id="paint4_linear_114_10892" x1="85" y1="103.373" x2="164.258" y2="103.373" gradientUnits="userSpaceOnUse">
<stop stop-color="#381763"/>
<stop offset="1" stop-color="#929292" stop-opacity="0"/>
</linearGradient>
<linearGradient id="paint5_linear_114_10892" x1="60.0839" y1="32.5201" x2="150.5" y2="-113" gradientUnits="userSpaceOnUse">
<stop stop-color="#381763"/>
<stop offset="1" stop-color="#BEBEBE"/>
</linearGradient>
<linearGradient id="paint6_linear_114_10892" x1="2.57093" y1="83.5618" x2="54.5" y2="41.5" gradientUnits="userSpaceOnUse">
<stop stop-color="#381763"/>
<stop offset="1" stop-color="white" stop-opacity="0"/>
</linearGradient>
<linearGradient id="paint7_linear_114_10892" x1="23.0438" y1="134.582" x2="38.4336" y2="134.582" gradientUnits="userSpaceOnUse">
<stop stop-color="#381763"/>
<stop offset="1" stop-color="#747474" stop-opacity="0"/>
</linearGradient>
<linearGradient id="paint8_linear_114_10892" x1="112.762" y1="75.2889" x2="173" y2="20" gradientUnits="userSpaceOnUse">
<stop stop-color="#381763"/>
<stop offset="1" stop-color="#949494" stop-opacity="0"/>
</linearGradient>
<linearGradient id="paint9_linear_114_10892" x1="96" y1="153.5" x2="145.5" y2="100.5" gradientUnits="userSpaceOnUse">
<stop stop-color="#381763"/>
<stop offset="1" stop-color="#BDBDBD" stop-opacity="0"/>
</linearGradient>
<linearGradient id="paint10_linear_114_10892" x1="64.6639" y1="118.589" x2="74.5" y2="110" gradientUnits="userSpaceOnUse">
<stop stop-color="#381763"/>
<stop offset="1" stop-color="#868686" stop-opacity="0"/>
</linearGradient>
<linearGradient id="paint11_linear_114_10892" x1="30.3453" y1="26.3184" x2="100.5" y2="1" gradientUnits="userSpaceOnUse">
<stop stop-color="#381763"/>
<stop offset="1" stop-color="white" stop-opacity="0"/>
</linearGradient>
<linearGradient id="paint12_linear_114_10892" x1="40.6978" y1="86.102" x2="102.5" y2="6.5" gradientUnits="userSpaceOnUse">
<stop stop-color="#381763"/>
<stop offset="1" stop-color="#D3D3D3"/>
</linearGradient>
<linearGradient id="paint13_linear_114_10892" x1="152.5" y1="115" x2="197.5" y2="34" gradientUnits="userSpaceOnUse">
<stop stop-color="#381763"/>
<stop offset="1" stop-color="white" stop-opacity="0"/>
</linearGradient>
<linearGradient id="paint14_linear_114_10892" x1="113" y1="154" x2="133.5" y2="146" gradientUnits="userSpaceOnUse">
<stop stop-color="#381763"/>
<stop offset="1" stop-color="#343434" stop-opacity="0"/>
</linearGradient>
</defs>
</svg>
