<svg width="297" height="545" viewBox="0 0 297 545" fill="none" xmlns="http://www.w3.org/2000/svg">
<path d="M288.721 390.217C288.721 390.217 287.897 389.873 286.446 389.269L289.94 366.448C289.94 366.448 291.334 304.797 232.624 265.977C233.961 257.259 234.911 248.706 235.506 240.331C298.404 274.099 296.998 336.142 296.998 336.142L288.721 390.217Z" fill="url(#paint0_linear_112_92)"/>
<path d="M287.126 389.545C280.212 386.791 258.96 378.46 241.383 374.058C220.084 368.671 200.393 366.263 200.393 366.263C217.369 330.769 227.409 297.094 232.309 265.608C292.105 304.631 290.685 366.605 290.685 366.605L287.126 389.545Z" fill="url(#paint1_linear_112_92)"/>
<path d="M8.27509 390.217L0.00255886 336.142C0.00255886 336.142 -0.0421463 334.119 0.251408 330.605C1.58055 314.78 9.82045 268.728 60.2873 240.983C60.9029 249.389 61.8773 257.986 63.2432 266.736C5.68216 305.591 7.05991 366.448 7.05991 366.448L10.5541 389.269C9.10268 389.873 8.27509 390.217 8.27509 390.217Z" fill="url(#paint2_linear_112_92)"/>
<path d="M10.366 389.359L6.86397 366.521C6.86397 366.521 5.48313 305.619 63.1731 266.736C66.8875 290.467 73.4949 315.424 83.78 341.481C84.3317 342.893 84.8791 344.297 85.4716 345.705C88.2217 352.524 91.2538 359.394 94.5432 366.335C90.0606 366.941 73.2948 369.357 55.3765 373.941C42.5946 377.181 27.8351 382.556 18.2568 386.246C14.8734 387.547 12.1395 388.643 10.366 389.359Z" fill="url(#paint3_linear_112_92)"/>
<path d="M218.973 117.087L218.996 117.083C193.257 43.2424 147.879 0.1427 147.879 0.1427C147.879 0.1427 102.48 43.2424 76.745 117.083C121.822 126.035 166.899 126.458 211.996 118.383C166.899 126.469 121.834 126.047 76.745 117.083C56.5836 174.956 48.4661 251.729 83.8067 341.426C84.3568 342.837 84.9034 344.24 85.4945 345.647C89.3759 355.271 93.8078 365.005 98.7493 374.894C131.505 382.917 164.257 382.917 197.012 374.894C201.954 365.005 206.349 355.271 210.23 345.647C210.858 344.24 211.405 342.837 211.918 341.426C247.259 251.729 239.182 174.956 218.976 117.087" fill="white"/>
<path d="M147.856 124.142C130.312 124.142 112.764 122.853 95.2198 120.272C112.739 122.849 130.259 124.134 147.782 124.134C162.427 124.134 177.077 123.237 191.726 121.438C191.726 121.446 191.726 121.442 191.726 121.446C179.821 122.909 167.915 123.774 156.014 124.051C153.295 124.11 150.575 124.142 147.856 124.142Z" fill="url(#paint4_linear_112_92)"/>
<path d="M86.3763 118.865C83.559 118.383 80.7459 117.865 77.9286 117.316C80.7418 117.865 83.559 118.383 86.3763 118.865ZM77.6188 117.253C77.3253 117.197 77.0356 117.138 76.7421 117.083C77.0356 117.138 77.3253 117.197 77.6188 117.253Z" fill="url(#paint5_linear_112_92)"/>
<path d="M147.782 124.134C130.259 124.134 112.739 122.849 95.2196 120.272C96.8383 115.763 98.5304 111.38 100.284 107.119C116.14 109.23 131.996 110.281 147.856 110.281C161.253 110.281 174.647 109.53 188.048 108.024C189.283 112.384 190.511 116.861 191.725 121.438C177.076 123.236 162.427 124.134 147.782 124.134ZM156.014 124.055C167.915 123.778 179.82 122.913 191.725 121.451C191.725 121.455 191.726 121.458 191.73 121.462C179.824 122.92 167.919 123.782 156.014 124.055V124.055ZM86.3764 118.869C83.5591 118.387 80.7418 117.869 77.9286 117.32C77.8246 117.298 77.7206 117.275 77.6189 117.253C77.3253 117.197 77.0364 117.138 76.7428 117.082C94.5884 65.8807 121.889 29.4603 136.95 11.9438C123.19 27.9506 99.2201 59.7348 81.5742 104.147C84.8196 104.747 88.0692 105.304 91.3146 105.814C89.6063 110.047 87.9549 114.399 86.3771 118.865" fill="#F4F5F5"/>
<path d="M147.864 544.143C147.864 544.143 137.598 527.923 126.667 508.078C120.714 497.265 114.558 485.38 109.763 474.456C104.528 462.548 100.908 451.778 100.908 444.798C100.908 425.594 113.172 409.169 130.516 402.477C136.301 403.347 142.087 403.782 147.872 403.782C153.653 403.782 159.435 403.347 165.221 402.477C182.569 409.169 194.833 425.594 194.833 444.798C194.833 451.778 191.212 462.544 185.981 474.448C181.183 485.369 175.03 497.249 169.078 508.059C158.139 527.911 147.864 544.143 147.864 544.143ZM147.864 405.916C128.901 405.916 113.527 420.82 113.527 439.206C113.527 457.592 147.864 511.853 147.864 511.853C147.864 511.853 182.21 457.592 182.21 439.206C182.21 420.82 166.835 405.916 147.864 405.916Z" fill="url(#paint6_linear_112_92)"/>
<path d="M147.864 511.853C147.864 511.853 113.527 457.592 113.527 439.206C113.527 420.82 128.901 405.916 147.864 405.916C166.835 405.916 182.21 420.82 182.21 439.206C182.21 457.592 147.864 511.853 147.864 511.853ZM147.864 412.089C133.207 412.089 121.31 423.618 121.31 437.834C121.31 452.051 147.864 494.008 147.864 494.008C147.864 494.008 174.422 452.051 174.422 437.834C174.422 423.618 162.534 412.089 147.864 412.089Z" fill="url(#paint7_linear_112_92)"/>
<path d="M147.864 494.008C147.864 494.008 121.309 452.051 121.309 437.834C121.309 423.618 133.206 412.089 147.864 412.089C162.533 412.089 174.422 423.618 174.422 437.834C174.422 452.051 147.864 494.008 147.864 494.008Z" fill="url(#paint8_linear_112_92)"/>
<path d="M164.886 433.415C164.886 442.525 147.864 469.421 147.864 469.421C147.864 469.421 130.846 442.525 130.846 433.415C130.846 424.297 138.466 416.915 147.864 416.915C157.266 416.915 164.886 424.297 164.886 433.415Z" fill="url(#paint9_linear_112_92)"/>
<path d="M147.872 401.88C137.736 401.88 127.466 400.493 117.31 397.77C114.607 391.616 112.091 385.391 109.816 379.214C122.463 381.597 135.253 382.799 147.872 382.799C160.499 382.799 173.281 381.597 185.928 379.214C183.657 385.391 181.137 391.616 178.434 397.77C168.282 400.493 158.008 401.88 147.872 401.88Z" fill="url(#paint10_linear_112_92)"/>
<path d="M147.876 0.1427C147.876 0.1427 107.761 38.2388 81.5735 104.147C125.765 112.328 169.954 112.328 214.162 104.143C187.971 38.2388 147.876 0.1427 147.876 0.1427Z" fill="#F25B9E"/>
<path d="M197.01 374.894C198.49 371.934 199.92 368.989 201.298 366.057L201.287 366.108C199.908 369.025 198.489 371.95 197.017 374.89C197.013 374.89 197.014 374.894 197.01 374.894ZM235.506 240.331C235.498 240.327 235.494 240.323 235.489 240.319C238.849 193.299 231.094 151.796 218.973 117.087L218.993 117.083C231.094 151.796 238.853 193.307 235.506 240.331Z" fill="url(#paint11_linear_112_92)"/>
<path d="M232.624 265.977C232.616 265.973 232.607 265.969 232.603 265.965C233.945 257.247 234.895 248.694 235.49 240.323C235.494 240.323 235.498 240.327 235.506 240.331C234.911 248.706 233.961 257.259 232.624 265.977Z" fill="url(#paint12_linear_112_92)"/>
<path d="M201.287 366.108L201.299 366.057C204.536 359.192 207.508 352.394 210.228 345.647C210.856 344.24 211.402 342.837 211.916 341.426C222.288 315.112 228.917 289.904 232.603 265.965C232.607 265.969 232.615 265.973 232.623 265.977C227.812 297.299 217.954 330.799 201.287 366.108Z" fill="url(#paint13_linear_112_92)"/>
<path d="M177.513 378.633C179.857 368.515 182.1 358.718 184.212 349.208C192.892 348.331 201.568 347.141 210.228 345.647C207.508 352.394 204.536 359.192 201.299 366.057C199.921 368.99 198.49 371.934 197.01 374.894C190.511 376.483 184.012 377.673 177.513 378.633ZM185.08 345.284C203.814 260.096 211.691 197.409 192.08 122.794C191.965 122.352 191.844 121.901 191.73 121.458C200.818 120.343 209.906 118.885 218.994 117.083L218.971 117.087C231.092 151.796 238.847 193.299 235.487 240.323C234.892 248.694 233.942 257.247 232.601 265.965C228.915 289.904 222.286 315.112 211.913 341.426C202.964 343.055 194.019 344.339 185.078 345.284H185.08ZM217.617 113.218C199.287 62.7194 172.043 27.133 157.63 10.5967C157.622 10.5887 157.619 10.5743 157.607 10.5743C157.584 10.5519 157.573 10.5294 157.55 10.507C151.842 3.96206 148.168 0.428787 147.891 0.16394C148.862 1.0927 191.965 42.5562 217.618 113.223" fill="#E9EAE9"/>
<path d="M191.726 121.446C191.726 121.442 191.726 121.446 191.726 121.438C198.482 120.612 205.233 119.593 211.993 118.383C205.233 119.597 198.482 120.616 191.726 121.446Z" fill="url(#paint14_linear_112_92)"/>
<path d="M191.73 121.458C191.726 121.454 191.726 121.45 191.726 121.447C198.481 120.617 205.233 119.597 211.993 118.384C205.233 119.593 198.481 120.613 191.726 121.439C190.511 116.862 189.283 112.384 188.048 108.025C196.753 107.049 205.457 105.752 214.162 104.144C196.003 58.4515 171.165 26.1298 157.633 10.5973C172.045 27.1336 199.289 62.72 217.62 113.218C218.081 114.495 218.541 115.783 218.994 117.084C209.906 118.886 200.818 120.344 191.73 121.459V121.458ZM157.608 10.5696C157.585 10.5472 157.562 10.5248 157.55 10.5024C157.574 10.5248 157.585 10.5472 157.608 10.5696Z" fill="#DBDDDC"/>
<path d="M147.888 0.155102C147.88 0.146899 147.877 0.143555 147.877 0.143555C147.877 0.143555 147.881 0.147592 147.888 0.155102Z" fill="#E9EAE9"/>
<path d="M188.048 108.024C168.979 40.7445 147.896 0.198055 147.872 0.146632L147.876 0.1427C147.876 0.1427 147.88 0.146615 147.888 0.153897C147.892 0.153897 147.892 0.157829 147.892 0.157829C148.169 0.422227 151.842 3.95595 157.55 10.5009C157.562 10.5233 157.585 10.5457 157.608 10.5681C157.616 10.5761 157.62 10.5906 157.631 10.5906C171.163 26.1231 196.001 58.4447 214.161 104.137C205.456 105.746 196.751 107.042 188.047 108.018" fill="#BD2187"/>
<path d="M147.864 284.806C120.16 284.806 97.7029 253.053 97.7029 213.882C97.7029 174.711 120.16 142.959 147.864 142.959C175.576 142.959 198.037 174.711 198.037 213.882C198.037 253.053 175.576 284.806 147.864 284.806ZM147.864 147.239C121.831 147.239 100.724 177.075 100.724 213.882C100.724 250.694 121.831 280.534 147.864 280.534C173.905 280.534 195.016 250.694 195.016 213.882C195.016 177.075 173.905 147.239 147.864 147.239Z" fill="url(#paint15_linear_112_92)"/>
<path d="M148.089 281.632C121.745 281.632 100.384 251.395 100.384 214.092C100.384 176.794 121.745 146.56 148.089 146.56C174.442 146.56 195.806 176.794 195.806 214.092C195.806 251.395 174.442 281.632 148.089 281.632ZM148.089 158.976C126.279 158.976 108.533 183.703 108.533 214.096C108.533 244.486 126.279 269.213 148.089 269.213C169.907 269.213 187.653 244.486 187.653 214.096C187.653 183.703 169.907 158.976 148.089 158.976Z" fill="url(#paint16_linear_112_92)"/>
<path d="M147.681 266.833C127.18 266.833 110.494 243.217 110.494 214.193C110.494 185.165 127.18 161.549 147.681 161.549C168.187 161.549 184.872 185.165 184.872 214.193C184.872 243.217 168.187 266.833 147.681 266.833ZM130.97 175.886C125.96 175.886 120.717 181.319 118.177 189.833C115.039 200.382 117.241 211.668 123.097 215.045C124.226 215.694 125.408 216.007 126.602 216.007C131.612 216.007 136.855 210.574 139.386 202.06C142.529 191.511 140.33 180.221 134.475 176.849C133.345 176.195 132.164 175.886 130.97 175.886Z" fill="url(#paint17_linear_112_92)"/>
<path d="M147.9 162.567C128.039 162.567 111.874 185.76 111.874 214.269C111.874 242.774 128.039 265.967 147.9 265.967C167.765 265.967 183.93 242.774 183.93 214.269C183.93 185.76 167.765 162.567 147.9 162.567ZM147.9 269.857C125.821 269.857 107.856 244.919 107.856 214.269C107.856 183.615 125.821 158.677 147.9 158.677C169.987 158.677 187.952 183.615 187.952 214.269C187.952 244.919 169.987 269.857 147.9 269.857Z" fill="#323986"/>
<path d="M127.479 216.05C126.322 216.05 125.177 215.743 124.082 215.105C118.41 211.789 116.276 200.705 119.317 190.344C121.777 181.983 126.856 176.648 131.71 176.648C132.867 176.648 134.011 176.95 135.105 177.593C140.778 180.905 142.908 191.992 139.863 202.353C137.411 210.714 132.332 216.05 127.479 216.05Z" fill="#F2F2F2"/>
<path d="M103.79 357.034C102.086 357.034 100.459 356.069 99.7456 354.457C98.6893 352.105 97.6661 349.754 96.6672 347.406C100.043 347.884 103.419 348.314 106.799 348.702C107.141 349.481 107.488 350.263 107.839 351.046C108.813 353.22 107.781 355.733 105.548 356.678C104.973 356.915 104.378 357.033 103.791 357.033" fill="white"/>
<path d="M95.2199 120.276C94.3964 120.158 93.5686 120.031 92.745 119.905H92.7534C93.5769 120.031 94.3964 120.154 95.2199 120.272V120.276Z" fill="url(#paint18_linear_112_92)"/>
<path d="M92.7447 119.905C90.6205 119.577 88.5004 119.233 86.3762 118.865C86.3762 118.865 86.3721 118.869 86.3762 118.865C88.5004 119.229 90.6248 119.577 92.7531 119.905H92.7447Z" fill="url(#paint19_linear_112_92)"/>
<path d="M105.042 344.647C101.674 344.236 98.3062 343.781 94.9384 343.276C63.7483 267.491 60.7108 192.461 85.9442 120.098C86.0864 119.687 86.2297 119.276 86.3764 118.865C88.5007 119.233 90.6207 119.577 92.745 119.905C93.569 120.032 94.3961 120.158 95.2197 120.277C94.9134 121.126 94.6118 121.98 94.3148 122.838C69.2689 194.655 72.8894 269.25 105.042 344.648" fill="white"/>
<path d="M95.2199 120.272C94.3963 120.154 93.5769 120.031 92.7533 119.905C93.5728 120.027 94.4004 120.154 95.2199 120.272Z" fill="url(#paint20_linear_112_92)"/>
<path d="M92.7535 119.905C90.6252 119.577 88.5008 119.229 86.3766 118.865C88.5008 119.229 90.6252 119.577 92.7535 119.905Z" fill="url(#paint21_linear_112_92)"/>
<path d="M95.2197 120.272C94.4003 120.154 93.5726 120.027 92.7531 119.905C90.6248 119.577 88.5007 119.229 86.3765 118.865C87.9543 114.399 89.6056 110.048 91.3139 105.815C94.3025 106.289 97.2951 106.723 100.284 107.119C98.5304 111.379 96.8384 115.763 95.2197 120.272" fill="#F8F8F8"/>
<path d="M100.284 107.119C97.2952 106.724 94.3026 106.289 91.314 105.815C105.335 71.1296 123.254 44.5072 136.546 27.5637C137.418 26.4568 138.735 25.8722 140.064 25.8722C140.998 25.8722 141.936 26.1568 142.735 26.7461C144.676 28.1769 145.055 30.8643 143.583 32.7457C130.871 48.9421 113.82 74.2368 100.284 107.12" fill="#D1538B"/>
<path d="M147.856 351.05C134.177 351.05 120.482 350.26 106.799 348.702C106.204 347.346 105.621 345.999 105.042 344.647C119.324 346.382 133.59 347.248 147.856 347.248C160.262 347.248 172.665 346.591 185.08 345.283C184.791 346.588 184.506 347.892 184.212 349.208C172.095 350.429 159.969 351.05 147.856 351.05" fill="#F4F5F5"/>
<path d="M184.211 349.208C184.505 347.892 184.791 346.588 185.079 345.284C194.021 344.339 202.966 343.054 211.915 341.426C211.402 342.837 210.855 344.24 210.227 345.647C201.567 347.141 192.891 348.331 184.211 349.208" fill="#DBDDDC"/>
<path d="M96.6671 347.406C92.9406 346.876 89.214 346.291 85.4917 345.647C84.8999 344.24 84.3545 342.837 83.8038 341.426C87.5139 342.102 91.2281 342.719 94.9384 343.276C95.5047 344.651 96.0802 346.027 96.6671 347.406Z" fill="#F4F5F5"/>
<path d="M106.799 348.702C103.419 348.315 100.043 347.885 96.6671 347.406C96.08 346.027 95.5051 344.651 94.9384 343.276C98.3061 343.781 101.674 344.236 105.042 344.647C105.621 345.999 106.204 347.347 106.799 348.702Z" fill="#F4F5F5"/>
<defs>
<linearGradient id="paint0_linear_112_92" x1="201.287" y1="315.27" x2="297.004" y2="315.27" gradientUnits="userSpaceOnUse">
<stop stop-color="#FBFDFD"/>
<stop offset="1" stop-color="#A5B7C7"/>
</linearGradient>
<linearGradient id="paint1_linear_112_92" x1="287.758" y1="267.765" x2="236.71" y2="377.553" gradientUnits="userSpaceOnUse">
<stop stop-color="#FBFDFD"/>
<stop offset="1" stop-color="#A5B7C7"/>
</linearGradient>
<linearGradient id="paint2_linear_112_92" x1="95.7095" y1="315.27" x2="-0.00394557" y2="315.27" gradientUnits="userSpaceOnUse">
<stop stop-color="#FBFDFD"/>
<stop offset="1" stop-color="#A5B7C7"/>
</linearGradient>
<linearGradient id="paint3_linear_112_92" x1="9.74888" y1="268.124" x2="60.9468" y2="376.965" gradientUnits="userSpaceOnUse">
<stop stop-color="#FBFDFD"/>
<stop offset="1" stop-color="#A5B7C7"/>
</linearGradient>
<linearGradient id="paint4_linear_112_92" x1="165.069" y1="-299.327" x2="165.069" y2="1138.86" gradientUnits="userSpaceOnUse">
<stop stop-color="#271F3E"/>
<stop offset="0.607853" stop-color="#271F3E"/>
<stop offset="1" stop-color="#271F3E"/>
</linearGradient>
<linearGradient id="paint5_linear_112_92" x1="5.26612" y1="-353.846" x2="-366.356" y2="450.016" gradientUnits="userSpaceOnUse">
<stop stop-color="#271F3E"/>
<stop offset="0.0777778" stop-color="#271F3E"/>
<stop offset="1" stop-color="#7255B0"/>
</linearGradient>
<linearGradient id="paint6_linear_112_92" x1="147.868" y1="399.268" x2="147.868" y2="544.146" gradientUnits="userSpaceOnUse">
<stop stop-color="#EC6975"/>
<stop offset="1" stop-color="#F8CF3F"/>
</linearGradient>
<linearGradient id="paint7_linear_112_92" x1="147.868" y1="399.268" x2="147.868" y2="544.145" gradientUnits="userSpaceOnUse">
<stop stop-color="#FCDA5E"/>
<stop offset="1" stop-color="#F8F33E"/>
</linearGradient>
<linearGradient id="paint8_linear_112_92" x1="147.868" y1="399.268" x2="147.868" y2="544.146" gradientUnits="userSpaceOnUse">
<stop stop-color="#FBC013"/>
<stop offset="1" stop-color="#F8EC07"/>
</linearGradient>
<linearGradient id="paint9_linear_112_92" x1="147.864" y1="416.915" x2="147.864" y2="469.421" gradientUnits="userSpaceOnUse">
<stop stop-color="#EC6975"/>
<stop offset="0.213125" stop-color="#EC6975"/>
<stop offset="1" stop-color="#F8CF3F"/>
</linearGradient>
<linearGradient id="paint10_linear_112_92" x1="108.311" y1="390.395" x2="187.43" y2="390.395" gradientUnits="userSpaceOnUse">
<stop stop-color="#171A3D"/>
<stop offset="0.607853" stop-color="#171A3D"/>
<stop offset="1" stop-color="#171A3D"/>
</linearGradient>
<linearGradient id="paint11_linear_112_92" x1="165.069" y1="-299.325" x2="165.069" y2="1138.85" gradientUnits="userSpaceOnUse">
<stop stop-color="#261F3C"/>
<stop offset="0.607853" stop-color="#261F3C"/>
<stop offset="1" stop-color="#261F3C"/>
</linearGradient>
<linearGradient id="paint12_linear_112_92" x1="201.286" y1="315.27" x2="297.005" y2="315.27" gradientUnits="userSpaceOnUse">
<stop stop-color="#E3E5E6"/>
<stop offset="1" stop-color="#92A3B2"/>
</linearGradient>
<linearGradient id="paint13_linear_112_92" x1="287.065" y1="268.123" x2="235.855" y2="376.827" gradientUnits="userSpaceOnUse">
<stop stop-color="#E3E5E6"/>
<stop offset="1" stop-color="#92A3B2"/>
</linearGradient>
<linearGradient id="paint14_linear_112_92" x1="165.07" y1="-299.325" x2="165.069" y2="1138.85" gradientUnits="userSpaceOnUse">
<stop stop-color="#241D37"/>
<stop offset="0.607853" stop-color="#241D37"/>
<stop offset="1" stop-color="#241D37"/>
</linearGradient>
<linearGradient id="paint15_linear_112_92" x1="147.868" y1="142.959" x2="147.868" y2="284.806" gradientUnits="userSpaceOnUse">
<stop stop-color="#9A9FA2"/>
<stop offset="0.293438" stop-color="#9A9FA2"/>
<stop offset="0.35873" stop-color="#BEBFBB"/>
<stop offset="0.626836" stop-color="#9BA0A3"/>
<stop offset="1" stop-color="#768187"/>
</linearGradient>
<linearGradient id="paint16_linear_112_92" x1="115.683" y1="159.601" x2="177.657" y2="270.186" gradientUnits="userSpaceOnUse">
<stop stop-color="#9A9FA2"/>
<stop offset="0.293438" stop-color="#9A9FA2"/>
<stop offset="0.35873" stop-color="#BEBFBB"/>
<stop offset="0.626836" stop-color="#9BA0A3"/>
<stop offset="1" stop-color="#768187"/>
</linearGradient>
<linearGradient id="paint17_linear_112_92" x1="108.425" y1="214.189" x2="186.95" y2="214.189" gradientUnits="userSpaceOnUse">
<stop stop-color="#171A3D"/>
<stop offset="0.607853" stop-color="#171A3D"/>
<stop offset="1" stop-color="#171A3D"/>
</linearGradient>
<linearGradient id="paint18_linear_112_92" x1="165.073" y1="-299.299" x2="165.073" y2="1138.79" gradientUnits="userSpaceOnUse">
<stop stop-color="#5B4E76"/>
<stop offset="0.607853" stop-color="#5B4E76"/>
<stop offset="1" stop-color="#5B4E76"/>
</linearGradient>
<linearGradient id="paint19_linear_112_92" x1="5.2624" y1="-353.938" x2="-366.468" y2="450.038" gradientUnits="userSpaceOnUse">
<stop stop-color="#5B4E76"/>
<stop offset="0.0777778" stop-color="#5B4E76"/>
<stop offset="1" stop-color="#A182C8"/>
</linearGradient>
<linearGradient id="paint20_linear_112_92" x1="165.067" y1="-299.184" x2="165.067" y2="1138.51" gradientUnits="userSpaceOnUse">
<stop stop-color="#594C73"/>
<stop offset="0.607853" stop-color="#594C73"/>
<stop offset="1" stop-color="#594C73"/>
</linearGradient>
<linearGradient id="paint21_linear_112_92" x1="5.26279" y1="-353.938" x2="-366.467" y2="450.038" gradientUnits="userSpaceOnUse">
<stop stop-color="#594C73"/>
<stop offset="0.0777778" stop-color="#594C73"/>
<stop offset="1" stop-color="#9D7DC6"/>
</linearGradient>
</defs>
</svg>
